<svg xmlns="http://www.w3.org/2000/svg" width="1200" height="630" viewBox="0 0 1200 630" role="img" aria-label="VerdictArena cover">
  <rect width="1200" height="630" fill="#0a0b10"/>
  <rect x="20" y="20" width="1160" height="590" rx="28" fill="#0E1018" stroke="#202432" stroke-width="2"/>

  <g opacity="0.08">
    <path d="M980 150 L1180 220 V420 C1180 520 1080 575 980 615 C880 575 780 520 780 420 V220 Z" fill="#7c8cff"/>
  </g>

  <g transform="translate(72 70)">
    <rect width="64" height="64" rx="16" fill="#0E1018" stroke="#2a2f42" stroke-width="2"/>
    <path d="M32 12 L52 19 V38 C52 48 43 53 32 57 C21 53 12 48 12 38 V19 Z" fill="#7c8cff"/>
    <path d="M24 33 l6 6 l11 -14" fill="none" stroke="#0E1018" stroke-width="5" stroke-linecap="round" stroke-linejoin="round"/>
  </g>
  <text x="152" y="113" font-family="Segoe UI, Arial, sans-serif" font-size="34" font-weight="700" fill="#e8eaf2">Verdict<tspan fill="#7c8cff">Arena</tspan></text>

  <text x="72" y="270" font-family="Segoe UI, Arial, sans-serif" font-size="62" font-weight="700" fill="#e8eaf2">The AI judge that</text>
  <text x="72" y="344" font-family="Segoe UI, Arial, sans-serif" font-size="62" font-weight="700" fill="#e8eaf2">provably can't be rigged.</text>

  <text x="74" y="408" font-family="Segoe UI, Arial, sans-serif" font-size="27" fill="#9aa0b4">Every verdict is signed in a TEE on 0G Compute — verify it yourself.</text>

  <g font-family="Segoe UI, Arial, sans-serif" font-size="22" font-weight="600">
    <rect x="72" y="452" width="270" height="52" rx="26" fill="#161924" stroke="#2a2f42" stroke-width="1.5"/>
    <text x="98" y="485" fill="#a9b2ff">0G Compute · TEE-signed</text>
    <rect x="358" y="452" width="178" height="52" rx="26" fill="#161924" stroke="#2a2f42" stroke-width="1.5"/>
    <text x="384" y="485" fill="#a9b2ff">0G Storage</text>
    <rect x="552" y="452" width="290" height="52" rx="26" fill="#10211c" stroke="#1c5f4d" stroke-width="1.5"/>
    <text x="578" y="485" fill="#5fe3c0">verify this judgment ✓</text>
  </g>

  <text x="72" y="566" font-family="Segoe UI, Arial, sans-serif" font-size="24" font-weight="600" fill="#43e0b8">verdict-arena.vercel.app</text>
  <text x="1128" y="566" text-anchor="end" font-family="Segoe UI, Arial, sans-serif" font-size="20" fill="#5f5e6a">0G Zero Cup 2026</text>
</svg>
